# xmcd CD database file
#
# Track frame offsets:
#	150
#	2355
#	22657
#	25761
#	30161
#	32927
#	53902
#	56483
#	60386
#	66954
#	72375
#	88970
#	104377
#	106980
#	112982
#	113857
#	117385
#	118597
#	125009
#	128463
#	131333
#	134613
#	139804
#	145148
#	152097
#	167061
#	178161
#	181571
#	183934
#	189053
#	192624
#	198337
#	209084
#	215007
#	231404
#	244293
#	247039
#	257309
#	260098
#	264234
#	274275
#	286525
#
# Disc length: 3852 seconds
#
# Revision: 0
# Processed by: cddbd v1.5.2PL0 Copyright (c) Steve Scherf et al.
# Submitted via: CDex 1.51
#
DISCID=650f0a2a
DTITLE=Mississipi John hurt - the Guitar of Mississipi John Hurt Vol 2 disk 1
DYEAR=1900
DGENRE=Blues
TTITLE0=Introduction
TTITLE1=MJH performs C.C. Rider
TTITLE2=Tuning
TTITLE3=Discussion of chord positions used in C.C. Rider
TTITLE4=Plays C.C. Rider
TTITLE5=Teaching of 1st 12 bars of C.C. Rider
TTITLE6=Plays 1st 12 bars of C.C. Rider
TTITLE7=Teaching from 13th bar of C.C. Rider
TTITLE8=Plays from 14th bar if C.C. Rider and then from top
TTITLE9=Introduction to Ma Rainey's 1924 recording of See See Rider Blues
TTITLE10=Ma Rainey's 1924 recording of See See Rider Blues
TTITLE11=MJH's 1928 recording of Stack O'Lee Blues
TTITLE12=Plays Stack O'Lee Blues
TTITLE13=Teaching of 1st 4 bars of Stack O'Lee Blues
TTITLE14=Plays 1st 4 bars of Stack O'Lee Blues
TTITLE15=Teaching form 5th to 8th bars of Stack O'Lee Blues
TTITLE16=Plays form 5th to 8th bars of Stack O'Lee Blues
TTITLE17=Teaching from 9th bar of Stack O'Lee Blues
TTITLE18=Plays slowly Stack O'Lee Blues
TTITLE19=Plays little faster Stack O'Lee Blues
TTITLE20=Plays Stack O'Lee Blues up to tempo
TTITLE21=Discussion of improvising Stack O'Lee Blues
TTITLE22=Furry Lewis's 1927 recording of Billy Lions and Stack O'Lee
TTITLE23=Introduction to Big Legs Blues
TTITLE24=MJH's 1928 recording of Big Legs Blues
TTITLE25=Teaching of 1st guitar break of Big Legs Blues
TTITLE26=Plays 1st guitar break of Big Legs Blues
TTITLE27=Plays 2nd guitar break of Big Legs Blues
TTITLE28=Teaching of 2nd guitar break of Big Legs Blues
TTITLE29=Plays 2nd guitar break of Big Legs Blues
TTITLE30=Plays 1st and 2nd guitar breaks of Big Legs Blues
TTITLE31=Discussion of playing blues in the key of D
TTITLE32=Improvising playing a blues in D in the Delta style
TTITLE33=Robert Wilkins' 1930 recording of I'll go with her blues
TTITLE34=MJH performing Corrina, Corrina
TTITLE35=Plays 1st guitar break of Corrina, Corrina
TTITLE36=Teaching 1st guita break of Corrina, Corrina
TTITLE37=Plays slowly 1st guitar break of Corrina, Corrina
TTITLE38=Plays 1st guita break of Corrina, Corrina upt to tempo
TTITLE39=Clarence Ashley's 1931 recording of Corrina, Corrina
TTITLE40=Doc watson performs Corrina, Corrina
TTITLE41=Closing thougths
EXTD=
EXTT0=
EXTT1=
EXTT2=
EXTT3=
EXTT4=
EXTT5=
EXTT6=
EXTT7=
EXTT8=
EXTT9=
EXTT10=
EXTT11=
EXTT12=
EXTT13=
EXTT14=
EXTT15=
EXTT16=
EXTT17=
EXTT18=
EXTT19=
EXTT20=
EXTT21=
EXTT22=
EXTT23=
EXTT24=
EXTT25=
EXTT26=
EXTT27=
EXTT28=
EXTT29=
EXTT30=
EXTT31=
EXTT32=
EXTT33=
EXTT34=
EXTT35=
EXTT36=
EXTT37=
EXTT38=
EXTT39=
EXTT40=
EXTT41=
PLAYORDER=
